<svg enable-background="new 0 0 45 45" viewBox="0 0 45 45" xmlns="http://www.w3.org/2000/svg" xmlns:xlink="http://www.w3.org/1999/xlink"><clipPath id="a"><path d="m0 36h36v-36h-36z"/></clipPath><g clip-path="url(#a)" fill="#be1931" transform="matrix(1.25 0 0 -1.25 0 45)"><path d="m0 0c0-1.657-1.343-3-3-3s-3 1.343-3 3 1.343 3 3 3 3-1.343 3-3" transform="translate(21 4)"/><path d="m0 0c0-1.657-1.344-3-3-3-1.657 0-3 1.343-3 3v19c0 1.657 1.343 3 3 3 1.656 0 3-1.343 3-3z" transform="translate(21 12)"/></g></svg>