<?xml version="1.0" encoding="UTF-8" standalone="no"?>
<!-- Created with Inkscape (http://www.inkscape.org/) -->

<svg
   xmlns:dc="http://purl.org/dc/elements/1.1/"
   xmlns:cc="http://creativecommons.org/ns#"
   xmlns:rdf="http://www.w3.org/1999/02/22-rdf-syntax-ns#"
   xmlns:svg="http://www.w3.org/2000/svg"
   xmlns="http://www.w3.org/2000/svg"
   xmlns:sodipodi="http://sodipodi.sourceforge.net/DTD/sodipodi-0.dtd"
   xmlns:inkscape="http://www.inkscape.org/namespaces/inkscape"
   width="151.44766mm"
   height="51.300999mm"
   viewBox="0 0 151.44766 51.300999"
   version="1.1"
   id="svg3902"
   inkscape:version="0.92.2 5c3e80d, 2017-08-06"
   sodipodi:docname="JuliaCon-NG.svg"
   inkscape:export-filename="/home/vchuravy/JuliaCon-NG-small-purple.svg.png"
   inkscape:export-xdpi="96"
   inkscape:export-ydpi="96">
  <defs
     id="defs3896" />
  <sodipodi:namedview
     id="base"
     pagecolor="#ffffff"
     bordercolor="#666666"
     borderopacity="1.0"
     inkscape:pageopacity="0.0"
     inkscape:pageshadow="2"
     inkscape:zoom="1.2933653"
     inkscape:cx="231.72833"
     inkscape:cy="24.196814"
     inkscape:document-units="mm"
     inkscape:current-layer="g945"
     showgrid="false"
     fit-margin-top="0"
     fit-margin-left="0"
     fit-margin-right="0"
     fit-margin-bottom="0"
     inkscape:window-width="2560"
     inkscape:window-height="1381"
     inkscape:window-x="0"
     inkscape:window-y="27"
     inkscape:window-maximized="1" />
  <metadata
     id="metadata3899">
    <rdf:RDF>
      <cc:Work
         rdf:about="">
        <dc:format>image/svg+xml</dc:format>
        <dc:type
           rdf:resource="http://purl.org/dc/dcmitype/StillImage" />
        <dc:title></dc:title>
      </cc:Work>
    </rdf:RDF>
  </metadata>
  <g
     inkscape:label="Layer 1"
     inkscape:groupmode="layer"
     id="layer1"
     transform="translate(0.08050206,-87.706784)">
    <g
       transform="matrix(0.26458333,0,0,0.26458333,-3.690454,82.293252)"
       id="g3855">
      <flowRoot
         style="font-style:normal;font-variant:normal;font-weight:normal;font-stretch:normal;font-size:40px;line-height:1.25;font-family:'Tamil MN';-inkscape-font-specification:'Tamil MN';letter-spacing:0px;word-spacing:0px;fill:#000000;fill-opacity:1;stroke:none"
         id="flowRoot46"
         xml:space="preserve"><flowRegion
           id="flowRegion48"><rect
             y="77.366844"
             x="322.65848"
             height="74.350189"
             width="33.795544"
             id="rect50" /></flowRegion><flowPara
           id="flowPara52" /></flowRoot>      <g
         id="g945">
        <g
           id="g984">
          <g
             id="g920">
            <path
               style="font-style:normal;font-variant:normal;font-weight:normal;font-stretch:normal;font-size:medium;line-height:1.25;font-family:'Tamil MN';-inkscape-font-specification:'Tamil MN';letter-spacing:-8.81999969px;word-spacing:0px;fill:#1a1a1a;fill-opacity:1;stroke:none"
               inkscape:connector-curvature="0"
               id="path3804"
               d="M 195.92579,179.35413 H 170.69141 V 61.776 l 25.23438,-7.03125 z" />
            <g
               id="g898">
              <g
                 id="g893">
                <path
                   d="m 56.609583,91.878546 c -9.66394,0 -17.499213,-7.834179 -17.499213,-17.499213 0,-9.66394 7.835273,-17.499213 17.499213,-17.499213 9.665034,0 17.499213,7.835273 17.499213,17.499213 0,9.665034 -7.834179,17.499213 -17.499213,17.499213 z"
                   id="path19"
                   inkscape:connector-curvature="0"
                   style="fill:#4063d8;fill-opacity:1;stroke-width:1.09370077" />
              </g>
              <path
                 d="m 70.909538,179.35413 q 0,11.17187 -2.578125,17.96875 -2.5,6.875 -7.109375,10.625 -4.609375,3.82812 -11.09375,5.07812 -6.484375,1.32813 -14.375,1.32813 -5.3125,0 -9.453125,-0.9375 -4.140625,-0.85938 -6.953125,-2.42188 -2.8125,-1.5625 -4.21875,-3.67187 -1.484375,-2.03125 -1.484375,-4.29688 0,-3.98437 3.125,-6.64062 3.125,-2.65625 8.515625,-2.65625 2.03125,0 3.671875,0.625 1.5625,0.625 2.8125,1.5625 1.25,1.01562 2.265625,2.10937 0.9375,1.17188 1.640625,2.1875 1.796875,2.34375 2.96875,3.125 1.25,0.78125 2.265625,0.78125 1.09375,0 1.953125,-0.54687 0.859375,-0.54688 1.40625,-1.95313 0.546875,-1.40625 0.78125,-3.75 0.3125,-2.34375 0.3125,-6.01562 V 100.05725 L 70.909538,93.026 Z"
                 id="path3819"
                 inkscape:connector-curvature="0"
                 style="font-style:normal;font-variant:normal;font-weight:normal;font-stretch:normal;font-size:medium;line-height:1.25;font-family:'Tamil MN';-inkscape-font-specification:'Tamil MN';letter-spacing:-8.81999969px;word-spacing:0px;fill:#1a1a1a;fill-opacity:1;stroke:none" />
            </g>
            <path
               style="font-style:normal;font-variant:normal;font-weight:normal;font-stretch:normal;font-size:medium;line-height:1.25;font-family:'Tamil MN';-inkscape-font-specification:'Tamil MN';letter-spacing:-8.81999969px;word-spacing:0px;fill:#1a1a1a;fill-opacity:1;stroke:none"
               inkscape:connector-curvature="0"
               id="path3802"
               d="m 107.87079,95.526 v 59.0625 q 0,2.5 0.9375,4.6875 1.01562,2.10938 2.65625,3.67188 1.71875,1.5625 3.90625,2.5 2.26562,0.9375 4.76562,0.9375 1.40625,0 3.20313,-0.78125 1.79687,-0.78125 3.59375,-2.1875 1.875,-1.40625 3.59375,-3.28125 1.79687,-1.875 3.20312,-4.14063 V 95.526 h 25.46875 v 83.82813 h -25.46875 v -7.8125 q -5,4.29687 -10.70312,6.875 -5.625,2.5 -11.01563,2.5 -6.25,0 -11.64062,-2.03125 -5.39063,-2.10938 -9.375,-5.625 -3.98438,-3.59375 -6.25,-8.35938 -2.26563,-4.84375 -2.26563,-10.3125 V 95.526 Z" />
            <g
               id="g905">
              <g
                 id="g890">
                <path
                   d="m 220.99257,91.878546 c -9.66394,0 -17.49921,-7.834179 -17.49921,-17.499213 0,-9.66394 7.83527,-17.499213 17.49921,-17.499213 9.66504,0 17.49922,7.835273 17.49922,17.499213 0,9.665034 -7.83418,17.499213 -17.49922,17.499213 z"
                   id="path13"
                   inkscape:connector-curvature="0"
                   style="fill:#cb3c33;fill-opacity:1;stroke-width:1.09370077" />
                <path
                   d="m 263.03982,91.878546 c -9.66503,0 -17.49921,-7.834179 -17.49921,-17.499213 0,-9.66394 7.83418,-17.499213 17.49921,-17.499213 9.66504,0 17.49922,7.835273 17.49922,17.499213 0,9.665034 -7.83418,17.499213 -17.49922,17.499213 z"
                   id="path25"
                   inkscape:connector-curvature="0"
                   style="fill:#9558b2;fill-opacity:1;stroke-width:1.09370077" />
                <path
                   d="m 242.01809,55.459018 c -9.66503,0 -17.49921,-7.834179 -17.49921,-17.499213 0,-9.66394 7.83418,-17.499213 17.49921,-17.499213 9.66504,0 17.49922,7.835273 17.49922,17.499213 0,9.665034 -7.83418,17.499213 -17.49922,17.499213 z"
                   id="path31"
                   inkscape:connector-curvature="0"
                   style="fill:#389826;fill-opacity:1;stroke-width:1.09370077" />
              </g>
              <path
                 d="M 209.21517,100.05725 234.6058,93.026 v 86.32813 h -25.39063 z"
                 id="path3823"
                 inkscape:connector-curvature="0"
                 style="font-style:normal;font-variant:normal;font-weight:normal;font-stretch:normal;font-size:medium;line-height:1.25;font-family:'Tamil MN';-inkscape-font-specification:'Tamil MN';letter-spacing:-8.81999969px;word-spacing:0px;fill:#1a1a1a;fill-opacity:1;stroke:none" />
            </g>
            <path
               style="font-style:normal;font-variant:normal;font-weight:normal;font-stretch:normal;font-size:medium;line-height:1.25;font-family:'Tamil MN';-inkscape-font-specification:'Tamil MN';letter-spacing:-8.81999969px;word-spacing:0px;fill:#1a1a1a;fill-opacity:1;stroke:none"
               inkscape:connector-curvature="0"
               id="path3808"
               d="m 288.52016,135.99475 q -3.67187,1.5625 -7.42187,3.67188 -3.75,2.03125 -6.79688,4.53125 -3.04687,2.42187 -5,5.23437 -1.875,2.73438 -1.875,5.78125 0,2.42188 0.625,4.60938 0.625,2.10937 1.71875,3.75 1.09375,1.5625 2.42188,2.5 1.40625,0.9375 2.96875,0.9375 3.04687,0 6.25,-1.875 3.28125,-1.95313 7.10937,-4.84375 z m 25.54688,43.35938 h -25.54688 v -6.71875 q -2.10937,1.79687 -4.14062,3.28125 -2.03125,1.48437 -4.53125,2.65625 -2.42188,1.09375 -5.54688,1.71875 -3.125,0.625 -7.42187,0.625 -5.78125,0 -10.46875,-1.64063 -4.60938,-1.64062 -7.89063,-4.53125 -3.20312,-2.96875 -4.92187,-6.95312 -1.71875,-3.98438 -1.71875,-8.59375 0,-4.84375 1.79687,-8.67188 1.875,-3.90625 5,-7.03125 3.20313,-3.125 7.42188,-5.625 4.29687,-2.5 9.14062,-4.53125 4.92188,-2.03125 10.15625,-3.75 5.23438,-1.71875 10.3125,-3.35937 l 2.8125,-0.625 v -8.35938 q 0,-3.98437 -0.85937,-6.79687 -0.78125,-2.8125 -2.26563,-4.53125 -1.40625,-1.79688 -3.51562,-2.57813 -2.03125,-0.78125 -4.60938,-0.78125 -3.04687,0 -5.07812,0.78125 -2.03125,0.78125 -3.28125,2.1875 -1.25,1.32813 -1.79688,3.125 -0.54687,1.79688 -0.54687,3.82813 0,2.42187 -0.54688,4.60937 -0.46875,2.1875 -1.79687,3.90625 -1.25,1.64063 -3.51563,2.65625 -2.1875,1.01563 -5.70312,1.01563 -2.65625,0 -4.92188,-0.78125 -2.1875,-0.85938 -3.75,-2.26563 -1.5625,-1.48437 -2.5,-3.4375 -0.85937,-2.03125 -0.85937,-4.29687 0,-4.375 2.96875,-8.04688 2.96875,-3.75 7.96875,-6.48437 5.07812,-2.73438 11.64062,-4.21875 6.64063,-1.5625 13.98438,-1.5625 8.98437,0 15.46875,1.64062 6.5625,1.64063 10.78125,4.60938 4.21875,2.96875 6.25,7.1875 2.03125,4.21875 2.03125,9.45312 z" />
          </g>
          <g
             id="g925">
            <path
               style="font-style:normal;font-variant:normal;font-weight:normal;font-stretch:normal;font-size:medium;line-height:1.25;font-family:'Tamil MN';-inkscape-font-specification:'Tamil MN';letter-spacing:-8.81999969px;word-spacing:0px;fill:#800080;fill-opacity:1;stroke:none"
               inkscape:connector-curvature="0"
               id="path3810"
               d="m 366.88766,104.04163 q -4.0625,0 -7.42188,2.03125 -3.28125,2.03125 -5.625,5.54687 -2.34375,3.4375 -3.59375,8.04688 -1.25,4.53125 -1.25,9.60937 0,7.03125 1.5625,13.4375 1.64063,6.40625 4.53125,11.32813 2.89063,4.84375 6.95313,7.73437 4.14062,2.89063 9.21875,2.89063 4.21875,0 7.57812,-1.71875 3.4375,-1.71875 6.17188,-4.60938 2.8125,-2.96875 5,-6.875 2.26562,-3.90625 4.21875,-8.28125 l 12.10937,3.20313 q -2.10937,8.20312 -5.85937,14.6875 -3.75,6.40625 -8.98438,10.85937 -5.15625,4.375 -11.79687,6.71875 -6.5625,2.26563 -14.29688,2.26563 -8.67187,0 -16.32812,-3.28125 -7.57813,-3.35938 -13.28125,-9.0625 -5.625,-5.70313 -8.90625,-13.28125 -3.28125,-7.57813 -3.28125,-16.09375 0,-9.29688 3.51562,-17.5 3.51563,-8.28125 9.53125,-14.45313 6.01563,-6.25 14.14063,-9.84375 8.125,-3.59375 17.26562,-3.59375 7.73438,0 13.98438,1.5625 6.25,1.5625 10.625,4.375 4.45312,2.8125 6.79687,6.64063 2.42188,3.82812 2.42188,8.28125 0,2.10937 -1.25,3.98437 -1.25,1.875 -3.28125,3.35938 -2.03125,1.40625 -4.6875,2.26562 -2.57813,0.78125 -5.23438,0.78125 -3.04687,0 -5.3125,-0.85937 -2.26562,-0.85938 -3.82812,-2.1875 -1.5625,-1.40625 -2.34375,-3.20313 -0.78125,-1.79687 -0.78125,-3.67187 0,-1.875 -0.15625,-3.82813 -0.15625,-2.03125 -0.9375,-3.59375 -0.78125,-1.64062 -2.5,-2.65625 -1.64063,-1.01562 -4.6875,-1.01562 z" />
            <path
               style="font-style:normal;font-variant:normal;font-weight:normal;font-stretch:normal;font-size:medium;line-height:1.25;font-family:'Tamil MN';-inkscape-font-specification:'Tamil MN';letter-spacing:-8.81999969px;word-spacing:0px;fill:#800080;fill-opacity:1;stroke:none"
               inkscape:connector-curvature="0"
               id="path3812"
               d="m 455.48956,180.91663 q -10,0 -18.51563,-3.28125 -8.51562,-3.28125 -14.6875,-8.98438 -6.17187,-5.78125 -9.6875,-13.59375 -3.4375,-7.8125 -3.4375,-16.79687 0,-9.6875 3.4375,-17.8125 3.51563,-8.20313 9.6875,-14.0625 6.17188,-5.9375 14.60938,-9.21875 8.51562,-3.35938 18.51562,-3.35938 10,0 18.51563,3.28125 8.59375,3.20313 14.76562,8.90625 6.25,5.70313 9.76563,13.35938 3.51562,7.65625 3.51562,16.48437 0,9.29688 -3.51562,17.5 -3.51563,8.20313 -9.76563,14.375 -6.17187,6.09375 -14.6875,9.6875 -8.51562,3.51563 -18.51562,3.51563 z m 2.96875,-10.23438 q 3.51562,0 6.40625,-2.26562 2.96875,-2.26563 5.07812,-6.09375 2.10938,-3.82813 3.28125,-8.82813 1.25,-5 1.25,-10.46875 0,-8.04687 -1.17187,-15.15625 -1.17188,-7.10937 -3.90625,-12.42187 -2.65625,-5.3125 -7.03125,-8.4375 -4.29688,-3.125 -10.54688,-3.125 -2.96875,0 -5.78125,2.26562 -2.73437,2.1875 -4.84375,5.9375 -2.10937,3.75 -3.4375,8.67188 -1.25,4.92187 -1.25,10.3125 0,8.125 1.48438,15.3125 1.48437,7.1875 4.29687,12.57812 2.89063,5.39063 6.95313,8.59375 4.0625,3.125 9.21875,3.125 z" />
            <path
               style="font-style:normal;font-variant:normal;font-weight:normal;font-stretch:normal;font-size:medium;line-height:1.25;font-family:'Tamil MN';-inkscape-font-specification:'Tamil MN';letter-spacing:-8.81999969px;word-spacing:0px;fill:#800080;fill-opacity:1;stroke:none"
               inkscape:connector-curvature="0"
               id="path3814"
               d="m 560.65392,121.93225 q 0,-3.20312 -0.70312,-5.70312 -0.70313,-2.5 -1.875,-4.14063 -1.17188,-1.71875 -2.73438,-2.57812 -1.48437,-0.85938 -3.125,-0.85938 -1.64062,0 -3.82812,0.70313 -2.10938,0.625 -4.45313,1.875 -2.34375,1.17187 -4.76562,2.89062 -2.42188,1.71875 -4.6875,3.82813 v 61.40625 H 508.93517 V 95.526 h 25.54688 v 6.5625 q 5.85937,-4.29687 12.57812,-6.25 6.71875,-2.03125 13.4375,-2.03125 5.15625,0 9.76563,2.03125 4.6875,1.95313 8.125,5.46875 3.51562,3.4375 5.54687,8.125 2.10938,4.60938 2.10938,9.92188 v 60 h -25.39063 z" />
          </g>
        </g>
      </g>
      <flowRoot
         style="font-style:normal;font-variant:normal;font-weight:normal;font-stretch:normal;font-size:40px;line-height:1.25;font-family:'Tamil MN';-inkscape-font-specification:'Tamil MN';letter-spacing:0px;word-spacing:0px;fill:#000000;fill-opacity:1;stroke:none"
         id="flowRoot58"
         xml:space="preserve"><flowRegion
           id="flowRegion60"><rect
             y="124.6806"
             x="325.86017"
             height="54.072868"
             width="4.9803958"
             id="rect62" /></flowRegion><flowPara
           id="flowPara64" /></flowRoot>    </g>
  </g>
</svg>
