<?xml version="1.0" encoding="utf-8"?>
<svg xmlns="http://www.w3.org/2000/svg" xmlns:xlink="http://www.w3.org/1999/xlink" width="600" height="400" viewBox="0 0 2400 1600">
<defs>
  <clipPath id="clip9500">
    <rect x="0" y="0" width="2400" height="1600"/>
  </clipPath>
</defs>
<polygon clip-path="url(#clip9500)" points="
0,1600 2400,1600 2400,0 0,0 
  " fill="#ffffff" fill-rule="evenodd" fill-opacity="1"/>
<defs>
  <clipPath id="clip9501">
    <rect x="480" y="0" width="1681" height="1600"/>
  </clipPath>
</defs>
<polygon clip-path="url(#clip9500)" points="
229.135,1425.62 2352.76,1425.62 2352.76,47.2441 229.135,47.2441 
  " fill="#ffffff" fill-rule="evenodd" fill-opacity="1"/>
<defs>
  <clipPath id="clip9502">
    <rect x="229" y="47" width="2125" height="1379"/>
  </clipPath>
</defs>
<polyline clip-path="url(#clip9502)" style="stroke:#000000; stroke-width:2; stroke-opacity:0.1; fill:none" points="
  289.238,1425.62 289.238,47.2441 
  "/>
<polyline clip-path="url(#clip9502)" style="stroke:#000000; stroke-width:2; stroke-opacity:0.1; fill:none" points="
  957.043,1425.62 957.043,47.2441 
  "/>
<polyline clip-path="url(#clip9502)" style="stroke:#000000; stroke-width:2; stroke-opacity:0.1; fill:none" points="
  1624.85,1425.62 1624.85,47.2441 
  "/>
<polyline clip-path="url(#clip9502)" style="stroke:#000000; stroke-width:2; stroke-opacity:0.1; fill:none" points="
  2292.65,1425.62 2292.65,47.2441 
  "/>
<polyline clip-path="url(#clip9502)" style="stroke:#000000; stroke-width:2; stroke-opacity:0.1; fill:none" points="
  229.135,1402.46 2352.76,1402.46 
  "/>
<polyline clip-path="url(#clip9502)" style="stroke:#000000; stroke-width:2; stroke-opacity:0.1; fill:none" points="
  229.135,1125.73 2352.76,1125.73 
  "/>
<polyline clip-path="url(#clip9502)" style="stroke:#000000; stroke-width:2; stroke-opacity:0.1; fill:none" points="
  229.135,848.995 2352.76,848.995 
  "/>
<polyline clip-path="url(#clip9502)" style="stroke:#000000; stroke-width:2; stroke-opacity:0.1; fill:none" points="
  229.135,572.26 2352.76,572.26 
  "/>
<polyline clip-path="url(#clip9502)" style="stroke:#000000; stroke-width:2; stroke-opacity:0.1; fill:none" points="
  229.135,295.526 2352.76,295.526 
  "/>
<polyline clip-path="url(#clip9500)" style="stroke:#000000; stroke-width:4; stroke-opacity:1; fill:none" points="
  229.135,1425.62 2352.76,1425.62 
  "/>
<polyline clip-path="url(#clip9500)" style="stroke:#000000; stroke-width:4; stroke-opacity:1; fill:none" points="
  229.135,1425.62 229.135,47.2441 
  "/>
<polyline clip-path="url(#clip9500)" style="stroke:#000000; stroke-width:4; stroke-opacity:1; fill:none" points="
  289.238,1425.62 289.238,1404.94 
  "/>
<polyline clip-path="url(#clip9500)" style="stroke:#000000; stroke-width:4; stroke-opacity:1; fill:none" points="
  957.043,1425.62 957.043,1404.94 
  "/>
<polyline clip-path="url(#clip9500)" style="stroke:#000000; stroke-width:4; stroke-opacity:1; fill:none" points="
  1624.85,1425.62 1624.85,1404.94 
  "/>
<polyline clip-path="url(#clip9500)" style="stroke:#000000; stroke-width:4; stroke-opacity:1; fill:none" points="
  2292.65,1425.62 2292.65,1404.94 
  "/>
<polyline clip-path="url(#clip9500)" style="stroke:#000000; stroke-width:4; stroke-opacity:1; fill:none" points="
  229.135,1402.46 260.99,1402.46 
  "/>
<polyline clip-path="url(#clip9500)" style="stroke:#000000; stroke-width:4; stroke-opacity:1; fill:none" points="
  229.135,1125.73 260.99,1125.73 
  "/>
<polyline clip-path="url(#clip9500)" style="stroke:#000000; stroke-width:4; stroke-opacity:1; fill:none" points="
  229.135,848.995 260.99,848.995 
  "/>
<polyline clip-path="url(#clip9500)" style="stroke:#000000; stroke-width:4; stroke-opacity:1; fill:none" points="
  229.135,572.26 260.99,572.26 
  "/>
<polyline clip-path="url(#clip9500)" style="stroke:#000000; stroke-width:4; stroke-opacity:1; fill:none" points="
  229.135,295.526 260.99,295.526 
  "/>
<g clip-path="url(#clip9500)">
<text style="fill:#000000; fill-opacity:1; font-family:Arial,Helvetica Neue,Helvetica,sans-serif; font-size:48px; text-anchor:start;" transform="rotate(0, 246.167, 1500.63)" x="246.167" y="1500.63">10</text>
</g>
<g clip-path="url(#clip9500)">
<text style="fill:#000000; fill-opacity:1; font-family:Arial,Helvetica Neue,Helvetica,sans-serif; font-size:38px; text-anchor:start;" transform="rotate(0, 299.692, 1473.22)" x="299.692" y="1473.22">1 </text>
</g>
<g clip-path="url(#clip9500)">
<text style="fill:#000000; fill-opacity:1; font-family:Arial,Helvetica Neue,Helvetica,sans-serif; font-size:48px; text-anchor:start;" transform="rotate(0, 913.972, 1500.63)" x="913.972" y="1500.63">10</text>
</g>
<g clip-path="url(#clip9500)">
<text style="fill:#000000; fill-opacity:1; font-family:Arial,Helvetica Neue,Helvetica,sans-serif; font-size:38px; text-anchor:start;" transform="rotate(0, 967.497, 1473.22)" x="967.497" y="1473.22">2 </text>
</g>
<g clip-path="url(#clip9500)">
<text style="fill:#000000; fill-opacity:1; font-family:Arial,Helvetica Neue,Helvetica,sans-serif; font-size:48px; text-anchor:start;" transform="rotate(0, 1581.78, 1500.63)" x="1581.78" y="1500.63">10</text>
</g>
<g clip-path="url(#clip9500)">
<text style="fill:#000000; fill-opacity:1; font-family:Arial,Helvetica Neue,Helvetica,sans-serif; font-size:38px; text-anchor:start;" transform="rotate(0, 1635.3, 1473.22)" x="1635.3" y="1473.22">3 </text>
</g>
<g clip-path="url(#clip9500)">
<text style="fill:#000000; fill-opacity:1; font-family:Arial,Helvetica Neue,Helvetica,sans-serif; font-size:48px; text-anchor:start;" transform="rotate(0, 2249.58, 1500.63)" x="2249.58" y="1500.63">10</text>
</g>
<g clip-path="url(#clip9500)">
<text style="fill:#000000; fill-opacity:1; font-family:Arial,Helvetica Neue,Helvetica,sans-serif; font-size:38px; text-anchor:start;" transform="rotate(0, 2303.11, 1473.22)" x="2303.11" y="1473.22">4 </text>
</g>
<g clip-path="url(#clip9500)">
<text style="fill:#000000; fill-opacity:1; font-family:Arial,Helvetica Neue,Helvetica,sans-serif; font-size:48px; text-anchor:end;" transform="rotate(0, 205.135, 1419.96)" x="205.135" y="1419.96">0</text>
</g>
<g clip-path="url(#clip9500)">
<text style="fill:#000000; fill-opacity:1; font-family:Arial,Helvetica Neue,Helvetica,sans-serif; font-size:48px; text-anchor:end;" transform="rotate(0, 205.135, 1143.23)" x="205.135" y="1143.23">50</text>
</g>
<g clip-path="url(#clip9500)">
<text style="fill:#000000; fill-opacity:1; font-family:Arial,Helvetica Neue,Helvetica,sans-serif; font-size:48px; text-anchor:end;" transform="rotate(0, 205.135, 866.495)" x="205.135" y="866.495">100</text>
</g>
<g clip-path="url(#clip9500)">
<text style="fill:#000000; fill-opacity:1; font-family:Arial,Helvetica Neue,Helvetica,sans-serif; font-size:48px; text-anchor:end;" transform="rotate(0, 205.135, 589.76)" x="205.135" y="589.76">150</text>
</g>
<g clip-path="url(#clip9500)">
<text style="fill:#000000; fill-opacity:1; font-family:Arial,Helvetica Neue,Helvetica,sans-serif; font-size:48px; text-anchor:end;" transform="rotate(0, 205.135, 313.026)" x="205.135" y="313.026">200</text>
</g>
<g clip-path="url(#clip9500)">
<text style="fill:#000000; fill-opacity:1; font-family:Arial,Helvetica Neue,Helvetica,sans-serif; font-size:66px; text-anchor:middle;" transform="rotate(0, 1290.95, 1559.48)" x="1290.95" y="1559.48">matrix size</text>
</g>
<g clip-path="url(#clip9500)">
<text style="fill:#000000; fill-opacity:1; font-family:Arial,Helvetica Neue,Helvetica,sans-serif; font-size:66px; text-anchor:middle;" transform="rotate(-90, 89.2861, 736.431)" x="89.2861" y="736.431">NumPy time / Julia time</text>
</g>
<polyline clip-path="url(#clip9502)" style="stroke:#009af9; stroke-width:4; stroke-opacity:1; fill:none" points="
  289.238,86.2547 358.321,758.895 427.404,1032.75 496.488,1099.9 565.571,1162.28 634.654,1274.24 703.738,1276.11 772.821,1330.95 841.904,1338.33 910.987,1355.2 
  980.071,1363.48 1049.15,1356.47 1118.24,1369.73 1187.32,1373.3 1256.4,1371.56 1325.49,1373.06 1394.57,1384.28 1463.65,1386.61 1532.74,1380.82 1601.82,1374.5 
  1670.9,1379.31 1739.99,1376.32 1809.07,1374.73 1878.15,1384.38 1947.24,1381.83 2016.32,1377.73 2085.4,1376.4 2154.49,1376.64 2223.57,1381.24 2292.65,1371.05 
  
  "/>
<circle clip-path="url(#clip9502)" style="fill:#000000; stroke:none; fill-opacity:1" cx="289.238" cy="86.2547" r="18"/>
<circle clip-path="url(#clip9502)" style="fill:#009af9; stroke:none; fill-opacity:1" cx="289.238" cy="86.2547" r="14"/>
<circle clip-path="url(#clip9502)" style="fill:#000000; stroke:none; fill-opacity:1" cx="358.321" cy="758.895" r="18"/>
<circle clip-path="url(#clip9502)" style="fill:#009af9; stroke:none; fill-opacity:1" cx="358.321" cy="758.895" r="14"/>
<circle clip-path="url(#clip9502)" style="fill:#000000; stroke:none; fill-opacity:1" cx="427.404" cy="1032.75" r="18"/>
<circle clip-path="url(#clip9502)" style="fill:#009af9; stroke:none; fill-opacity:1" cx="427.404" cy="1032.75" r="14"/>
<circle clip-path="url(#clip9502)" style="fill:#000000; stroke:none; fill-opacity:1" cx="496.488" cy="1099.9" r="18"/>
<circle clip-path="url(#clip9502)" style="fill:#009af9; stroke:none; fill-opacity:1" cx="496.488" cy="1099.9" r="14"/>
<circle clip-path="url(#clip9502)" style="fill:#000000; stroke:none; fill-opacity:1" cx="565.571" cy="1162.28" r="18"/>
<circle clip-path="url(#clip9502)" style="fill:#009af9; stroke:none; fill-opacity:1" cx="565.571" cy="1162.28" r="14"/>
<circle clip-path="url(#clip9502)" style="fill:#000000; stroke:none; fill-opacity:1" cx="634.654" cy="1274.24" r="18"/>
<circle clip-path="url(#clip9502)" style="fill:#009af9; stroke:none; fill-opacity:1" cx="634.654" cy="1274.24" r="14"/>
<circle clip-path="url(#clip9502)" style="fill:#000000; stroke:none; fill-opacity:1" cx="703.738" cy="1276.11" r="18"/>
<circle clip-path="url(#clip9502)" style="fill:#009af9; stroke:none; fill-opacity:1" cx="703.738" cy="1276.11" r="14"/>
<circle clip-path="url(#clip9502)" style="fill:#000000; stroke:none; fill-opacity:1" cx="772.821" cy="1330.95" r="18"/>
<circle clip-path="url(#clip9502)" style="fill:#009af9; stroke:none; fill-opacity:1" cx="772.821" cy="1330.95" r="14"/>
<circle clip-path="url(#clip9502)" style="fill:#000000; stroke:none; fill-opacity:1" cx="841.904" cy="1338.33" r="18"/>
<circle clip-path="url(#clip9502)" style="fill:#009af9; stroke:none; fill-opacity:1" cx="841.904" cy="1338.33" r="14"/>
<circle clip-path="url(#clip9502)" style="fill:#000000; stroke:none; fill-opacity:1" cx="910.987" cy="1355.2" r="18"/>
<circle clip-path="url(#clip9502)" style="fill:#009af9; stroke:none; fill-opacity:1" cx="910.987" cy="1355.2" r="14"/>
<circle clip-path="url(#clip9502)" style="fill:#000000; stroke:none; fill-opacity:1" cx="980.071" cy="1363.48" r="18"/>
<circle clip-path="url(#clip9502)" style="fill:#009af9; stroke:none; fill-opacity:1" cx="980.071" cy="1363.48" r="14"/>
<circle clip-path="url(#clip9502)" style="fill:#000000; stroke:none; fill-opacity:1" cx="1049.15" cy="1356.47" r="18"/>
<circle clip-path="url(#clip9502)" style="fill:#009af9; stroke:none; fill-opacity:1" cx="1049.15" cy="1356.47" r="14"/>
<circle clip-path="url(#clip9502)" style="fill:#000000; stroke:none; fill-opacity:1" cx="1118.24" cy="1369.73" r="18"/>
<circle clip-path="url(#clip9502)" style="fill:#009af9; stroke:none; fill-opacity:1" cx="1118.24" cy="1369.73" r="14"/>
<circle clip-path="url(#clip9502)" style="fill:#000000; stroke:none; fill-opacity:1" cx="1187.32" cy="1373.3" r="18"/>
<circle clip-path="url(#clip9502)" style="fill:#009af9; stroke:none; fill-opacity:1" cx="1187.32" cy="1373.3" r="14"/>
<circle clip-path="url(#clip9502)" style="fill:#000000; stroke:none; fill-opacity:1" cx="1256.4" cy="1371.56" r="18"/>
<circle clip-path="url(#clip9502)" style="fill:#009af9; stroke:none; fill-opacity:1" cx="1256.4" cy="1371.56" r="14"/>
<circle clip-path="url(#clip9502)" style="fill:#000000; stroke:none; fill-opacity:1" cx="1325.49" cy="1373.06" r="18"/>
<circle clip-path="url(#clip9502)" style="fill:#009af9; stroke:none; fill-opacity:1" cx="1325.49" cy="1373.06" r="14"/>
<circle clip-path="url(#clip9502)" style="fill:#000000; stroke:none; fill-opacity:1" cx="1394.57" cy="1384.28" r="18"/>
<circle clip-path="url(#clip9502)" style="fill:#009af9; stroke:none; fill-opacity:1" cx="1394.57" cy="1384.28" r="14"/>
<circle clip-path="url(#clip9502)" style="fill:#000000; stroke:none; fill-opacity:1" cx="1463.65" cy="1386.61" r="18"/>
<circle clip-path="url(#clip9502)" style="fill:#009af9; stroke:none; fill-opacity:1" cx="1463.65" cy="1386.61" r="14"/>
<circle clip-path="url(#clip9502)" style="fill:#000000; stroke:none; fill-opacity:1" cx="1532.74" cy="1380.82" r="18"/>
<circle clip-path="url(#clip9502)" style="fill:#009af9; stroke:none; fill-opacity:1" cx="1532.74" cy="1380.82" r="14"/>
<circle clip-path="url(#clip9502)" style="fill:#000000; stroke:none; fill-opacity:1" cx="1601.82" cy="1374.5" r="18"/>
<circle clip-path="url(#clip9502)" style="fill:#009af9; stroke:none; fill-opacity:1" cx="1601.82" cy="1374.5" r="14"/>
<circle clip-path="url(#clip9502)" style="fill:#000000; stroke:none; fill-opacity:1" cx="1670.9" cy="1379.31" r="18"/>
<circle clip-path="url(#clip9502)" style="fill:#009af9; stroke:none; fill-opacity:1" cx="1670.9" cy="1379.31" r="14"/>
<circle clip-path="url(#clip9502)" style="fill:#000000; stroke:none; fill-opacity:1" cx="1739.99" cy="1376.32" r="18"/>
<circle clip-path="url(#clip9502)" style="fill:#009af9; stroke:none; fill-opacity:1" cx="1739.99" cy="1376.32" r="14"/>
<circle clip-path="url(#clip9502)" style="fill:#000000; stroke:none; fill-opacity:1" cx="1809.07" cy="1374.73" r="18"/>
<circle clip-path="url(#clip9502)" style="fill:#009af9; stroke:none; fill-opacity:1" cx="1809.07" cy="1374.73" r="14"/>
<circle clip-path="url(#clip9502)" style="fill:#000000; stroke:none; fill-opacity:1" cx="1878.15" cy="1384.38" r="18"/>
<circle clip-path="url(#clip9502)" style="fill:#009af9; stroke:none; fill-opacity:1" cx="1878.15" cy="1384.38" r="14"/>
<circle clip-path="url(#clip9502)" style="fill:#000000; stroke:none; fill-opacity:1" cx="1947.24" cy="1381.83" r="18"/>
<circle clip-path="url(#clip9502)" style="fill:#009af9; stroke:none; fill-opacity:1" cx="1947.24" cy="1381.83" r="14"/>
<circle clip-path="url(#clip9502)" style="fill:#000000; stroke:none; fill-opacity:1" cx="2016.32" cy="1377.73" r="18"/>
<circle clip-path="url(#clip9502)" style="fill:#009af9; stroke:none; fill-opacity:1" cx="2016.32" cy="1377.73" r="14"/>
<circle clip-path="url(#clip9502)" style="fill:#000000; stroke:none; fill-opacity:1" cx="2085.4" cy="1376.4" r="18"/>
<circle clip-path="url(#clip9502)" style="fill:#009af9; stroke:none; fill-opacity:1" cx="2085.4" cy="1376.4" r="14"/>
<circle clip-path="url(#clip9502)" style="fill:#000000; stroke:none; fill-opacity:1" cx="2154.49" cy="1376.64" r="18"/>
<circle clip-path="url(#clip9502)" style="fill:#009af9; stroke:none; fill-opacity:1" cx="2154.49" cy="1376.64" r="14"/>
<circle clip-path="url(#clip9502)" style="fill:#000000; stroke:none; fill-opacity:1" cx="2223.57" cy="1381.24" r="18"/>
<circle clip-path="url(#clip9502)" style="fill:#009af9; stroke:none; fill-opacity:1" cx="2223.57" cy="1381.24" r="14"/>
<circle clip-path="url(#clip9502)" style="fill:#000000; stroke:none; fill-opacity:1" cx="2292.65" cy="1371.05" r="18"/>
<circle clip-path="url(#clip9502)" style="fill:#009af9; stroke:none; fill-opacity:1" cx="2292.65" cy="1371.05" r="14"/>
</svg>
